<svg id="ic_invoice" xmlns="http://www.w3.org/2000/svg" width="24" height="24" viewBox="0 0 24 24">
  <path id="Path_378" data-name="Path 378" d="M0,0H24V24H0Z" fill="none"/>
  <path id="Path_379" data-name="Path 379" d="M14,3V7a1,1,0,0,0,1,1h4" transform="translate(1 -1)" fill="none" stroke="#7e84a3" stroke-linecap="round" stroke-linejoin="round" stroke-width="2"/>
  <path id="Path_380" data-name="Path 380" d="M18.714,23H7.286A2.255,2.255,0,0,1,5,20.778V5.222A2.255,2.255,0,0,1,7.286,3h9L21,7.556V20.778A2.255,2.255,0,0,1,18.714,23Z" transform="translate(-1 -1)" fill="none" stroke="#7e84a3" stroke-linecap="round" stroke-linejoin="round" stroke-width="2"/>
  <line id="Line_36" data-name="Line 36" y2="1" transform="translate(8 17)" fill="none" stroke="#7e84a3" stroke-linecap="round" stroke-linejoin="round" stroke-width="2"/>
  <line id="Line_37" data-name="Line 37" y2="2" transform="translate(12 16)" fill="none" stroke="#7e84a3" stroke-linecap="round" stroke-linejoin="round" stroke-width="2"/>
  <line id="Line_39" data-name="Line 39" y2="3" transform="translate(16 15)" fill="none" stroke="#7e84a3" stroke-linecap="round" stroke-linejoin="round" stroke-width="2"/>
  <g id="Group_1101" data-name="Group 1101" transform="translate(8 10)">
    <line id="Line_12" data-name="Line 12" x2="2" y2="1" transform="translate(0 2)" fill="none" stroke="#7e84a3" stroke-linecap="round" stroke-linejoin="round" stroke-width="2"/>
    <line id="Line_13" data-name="Line 13" y1="3" x2="4" transform="translate(2)" fill="none" stroke="#7e84a3" stroke-linecap="round" stroke-linejoin="round" stroke-width="2"/>
    <line id="Line_14" data-name="Line 14" x2="2" transform="translate(6)" fill="none" stroke="#7e84a3" stroke-linecap="round" stroke-linejoin="round" stroke-width="2"/>
  </g>
</svg>
