<svg id="Component_10_1" data-name="Component 10 – 1" xmlns="http://www.w3.org/2000/svg" width="32" height="32" viewBox="0 0 32 32">
  <rect id="Rectangle_1240" data-name="Rectangle 1240" width="32" height="32" rx="5" fill="current"/>
  <path id="folder" d="M24.133,67.224H14.147l-2.841-2.752A1.692,1.692,0,0,0,10.129,64H2.5A2.458,2.458,0,0,0,0,66.418V80.927a2.458,2.458,0,0,0,2.5,2.418H24.133a2.458,2.458,0,0,0,2.5-2.418V69.643A2.458,2.458,0,0,0,24.133,67.224Z" transform="translate(3.094 -60.362)" fill="#fff"/>
  <path id="Polygon_6" data-name="Polygon 6" d="M5.861,1.015a1,1,0,0,1,1.579,0l4.606,5.922a1,1,0,0,1-.789,1.614H2.045a1,1,0,0,1-.789-1.614Z" transform="translate(16 5.869) rotate(90)" fill="current"/>
  <g id="configuration-gear-options-preferences-setting-settings-svgrepo-com" transform="translate(12.969 15.308)">
    <path id="settings" d="M92.521,715.031a2.51,2.51,0,1,1,2.51-2.51,2.51,2.51,0,0,1-2.51,2.51Zm0-3.515a1.005,1.005,0,1,0,1.005,1.005A1.005,1.005,0,0,0,92.521,711.515Z" transform="translate(-84.982 -704.981)" fill="#fff" fill-rule="evenodd"/>
    <path id="settings_copy" data-name="settings copy" d="M77.539,695.029m7.539,1.432v2.154l-2.4.481a5.409,5.409,0,0,1-.407.967l1.363,2.045-1.523,1.523-2.026-1.351a5.283,5.283,0,0,1-.991.424l-.475,2.374H76.462l-.475-2.373a5.278,5.278,0,0,1-.991-.424l-2.026,1.351-1.523-1.523,1.363-2.045a5.388,5.388,0,0,1-.407-.967l-2.4-.481v-2.154l2.409-.482a5.386,5.386,0,0,1,.407-.957l-1.369-2.054,1.523-1.523,2.045,1.363a5.255,5.255,0,0,1,.969-.413l.479-2.4h2.154l.48,2.4a5.256,5.256,0,0,1,.968.413l2.045-1.363,1.523,1.523-1.369,2.053a5.411,5.411,0,0,1,.407.957Zm-7.539-2.947a4.023,4.023,0,1,0,4.024,4.024,4.023,4.023,0,0,0-4.024-4.024Z" transform="translate(-70 -690)" fill="#fff" fill-rule="evenodd"/>
  </g>
  <path id="Subtraction_1" data-name="Subtraction 1" d="M6.551,7.723H5.036c0-.068-.007-.127-.007-.182a2.511,2.511,0,0,1,5.021,0c0,.06,0,.121-.006.181H8.528a1.005,1.005,0,1,0-1.977,0Zm-3.031,0H0V6.462L2.409,5.98a5.42,5.42,0,0,1,.407-.957L1.447,2.969,2.97,1.447,5.015,2.809A5.31,5.31,0,0,1,5.983,2.4L6.462,0H8.616L9.1,2.4a5.27,5.27,0,0,1,.968.414l2.045-1.363L13.632,2.97,12.263,5.023a5.42,5.42,0,0,1,.407.957l2.409.481V7.72H11.558c0-.057,0-.116,0-.183a4.024,4.024,0,0,0-8.047,0c0,.06,0,.122,0,.184Z" transform="translate(12.969 15.308)" fill="current"/>
</svg>
