<svg xmlns="http://www.w3.org/2000/svg" xmlns:xlink="http://www.w3.org/1999/xlink" width="134.53" height="31.886" viewBox="0 0 134.53 31.886">
  <defs>
    <clipPath id="clip-path">
      <rect id="Rectangle_671" data-name="Rectangle 671" width="134.53" height="31.886" transform="translate(0 0)" fill="#fff"/>
    </clipPath>
  </defs>
  <g id="Group_1085" data-name="Group 1085" transform="translate(0 0)">
    <g id="Group_1084" data-name="Group 1084" transform="translate(0 0)" clip-path="url(#clip-path)">
      <path id="Path_10588" data-name="Path 10588" d="M12.547,39.129A12.553,12.553,0,0,1,.838,22.066c.019-.049.039-.1.061-.144l4.448-9.63a2.425,2.425,0,0,1,4.4,2.033L5.336,23.88a7.7,7.7,0,1,0,14.909,2.7V15.025a2.425,2.425,0,1,1,4.849,0V26.582A12.561,12.561,0,0,1,12.547,39.129" transform="translate(0 -7.513)" fill="#fff"/>
      <path id="Path_10589" data-name="Path 10589" d="M195.2,37.5a2.425,2.425,0,0,0-3.115,1.433,6,6,0,0,1-2.432,2.823,7.675,7.675,0,0,1-10.55-2.006,7.538,7.538,0,0,1,2.066-10.458,7.591,7.591,0,0,1,6.779-.813,5.353,5.353,0,0,0,.475.254c.442.207,1.375.954.348,1.631a.391.391,0,0,0-.164.186l-7.6,5.44a2.425,2.425,0,0,0,2.823,3.943l9.857-7.055a3.559,3.559,0,0,0,1.733-2.819c.122-2.066-1.615-3.623-2.2-4.084a12.465,12.465,0,0,0-14.752-.711,12.3,12.3,0,0,0,6.857,22.57,13.178,13.178,0,0,0,6.841-1.931,10.846,10.846,0,0,0,4.466-5.287A2.424,2.424,0,0,0,195.2,37.5" transform="translate(-119.402 -16.002)" fill="#fff"/>
      <path id="Path_10590" data-name="Path 10590" d="M108.718,46.979a2.425,2.425,0,0,1-2.425-2.425V29.848a2.953,2.953,0,0,0-5.906,0V44.554a2.425,2.425,0,0,1-4.849,0V29.848a2.953,2.953,0,0,0-5.906,0V44.554a2.425,2.425,0,0,1-4.849,0V29.848A7.8,7.8,0,0,1,97.963,24.2a7.8,7.8,0,0,1,13.179,5.648V44.554a2.425,2.425,0,0,1-2.425,2.425" transform="translate(-58.524 -15.218)" fill="#fff"/>
      <path id="Path_10591" data-name="Path 10591" d="M272.308,0a2.425,2.425,0,0,0-2.425,2.425V19.448a7.633,7.633,0,0,1-15.266,0,7.938,7.938,0,0,1,3.774-6.471,6.958,6.958,0,0,1,3.376-.874,7.077,7.077,0,0,1,1.006.074,8.257,8.257,0,0,1,2.623,1.007A2.423,2.423,0,0,0,268.13,9.2,2.417,2.417,0,0,0,267.6,8.8a11.877,11.877,0,0,0-3.75-1.349,10.879,10.879,0,0,0-7.779,1.266c-.046.026-.088.056-.133.083a12.43,12.43,0,0,0-6.249,10.833,2.424,2.424,0,0,0,.112.729,12.483,12.483,0,0,0,24.929-.91V2.425A2.425,2.425,0,0,0,272.308,0" transform="translate(-172.356 0)" fill="#fff"/>
      <path id="Path_10592" data-name="Path 10592" d="M378.255,30.206c0-.011-.006-.023-.01-.034s-.014-.037-.021-.056q-.077-.22-.161-.435c-.024-.061-.047-.122-.072-.182-.046-.114-.1-.226-.146-.339-.04-.09-.08-.18-.121-.269-.034-.072-.07-.143-.106-.215-.062-.125-.125-.25-.19-.372l-.046-.082a12.356,12.356,0,0,0-2.991-3.61l-.055-.044c-.128-.1-.256-.206-.387-.3s-.273-.2-.412-.3l-.045-.032A12.36,12.36,0,0,0,368,21.861l-.093-.012c-.142-.016-.286-.029-.429-.041-.077-.006-.153-.013-.229-.017-.108-.007-.216-.011-.325-.015s-.222-.007-.333-.008c-.038,0-.076,0-.115,0s-.1,0-.146,0c-.126,0-.252,0-.378.01l-.248.013q-.183.012-.367.028-.137.013-.273.028c-.108.012-.216.026-.325.041s-.212.031-.317.049-.182.031-.273.049q-.183.035-.364.075l-.226.052q-.2.048-.4.1l-.2.057q-.2.059-.4.124c-.041.013-.081.024-.122.038l-.094.035q-.173.061-.344.128c-.091.035-.181.07-.271.107s-.163.07-.244.105c-.121.053-.242.107-.361.163l-.118.058a12.359,12.359,0,0,0-4.5,3.728c-.019.024-.035.049-.053.074-.093.127-.186.255-.274.385s-.188.285-.278.43l-.029.044a12.343,12.343,0,0,0-1.659,4.38c-.006.034-.013.068-.019.1-.022.134-.041.27-.059.406-.011.082-.022.164-.031.246s-.019.191-.027.286c-.011.125-.021.25-.028.375,0,.063-.007.125-.009.188q-.011.235-.012.471c0,.019,0,.038,0,.057s0,.022,0,.034c0,.027,0,.053,0,.08s0,.026,0,.039c0,.032,0,.062,0,.094q0,.1,0,.2a12.5,12.5,0,0,0,17.6,11.128,2.424,2.424,0,1,0-1.98-4.426,7.652,7.652,0,0,1-10.261-4.237,2.411,2.411,0,0,0-.106-.447,7.57,7.57,0,0,1-.406-2.227c0-.012,0-.024,0-.037,0-.071,0-.142,0-.213,0-.11,0-.219.008-.327,0-.025,0-.051,0-.076,0-.09.012-.18.02-.269,0-.045.008-.091.013-.136.007-.064.016-.128.024-.191s.019-.138.03-.207c.006-.035.013-.069.019-.1.017-.1.035-.19.055-.285l0-.015a7.649,7.649,0,0,1,.944-2.338c.02-.033.042-.065.062-.1.041-.065.082-.129.125-.193a7.64,7.64,0,0,1,2.947-2.56l.071-.035c.072-.035.146-.067.219-.1.05-.022.1-.044.151-.065s.108-.043.163-.064c.071-.027.142-.054.213-.079l.127-.043q.122-.041.245-.077l.121-.034q.121-.033.242-.063l.138-.032.221-.046.168-.03.19-.029.2-.026.163-.017c.076-.007.152-.013.228-.017l.146-.008c.078,0,.157-.005.236-.006h.154c.07,0,.139,0,.209.005s.129,0,.193.009l.146.011c.086.007.172.015.257.024l.061.008a7.641,7.641,0,0,1,3.628,1.468c.062.047.123.1.184.145.029.023.058.045.086.069a7.652,7.652,0,0,1,1.657,1.915h0c.053.087.1.176.152.265.014.026.029.051.043.078.036.066.069.134.1.2.026.052.052.1.077.157s.042.094.064.14c.034.076.068.153.1.23.012.029.023.059.035.089.037.095.073.19.107.287a7.55,7.55,0,0,1,.42,2.484V44.219a2.425,2.425,0,0,0,4.849,0V34.2a12.376,12.376,0,0,0-.662-4" transform="translate(-244.387 -15.023)" fill="#fff"/>
      <path id="Path_10593" data-name="Path 10593" d="M336.14,33.351a2.634,2.634,0,1,0-2.635-2.635,2.634,2.634,0,0,0,2.635,2.635" transform="translate(-230.211 -19.384)" fill="#fff"/>
      <path id="Path_10594" data-name="Path 10594" d="M336.608,54.585a2.425,2.425,0,0,0-2.424,2.425v9.865a2.425,2.425,0,0,0,4.849,0V57.01a2.425,2.425,0,0,0-2.425-2.425" transform="translate(-230.679 -37.679)" fill="#fff"/>
    </g>
  </g>
</svg>
