<svg xmlns="http://www.w3.org/2000/svg" width="350" height="85.212" viewBox="0 0 350 85.212">
  <g transform="translate(-618.5 -287)">
    <path d="M183.726,7.414c-5.1-.017-7.577-.266-8.79.465a2.893,2.893,0,0,0-1.5,2.31l-1.628,13.94c-.116,1.146,1.263,1.878,2.06,1.878h14.821c1.163,0,2.393-.4,2.625-1.6l1.794-14.223A2.744,2.744,0,0,0,191.12,7.48c-.864-.249-2.293-.05-7.377-.066Z" transform="translate(716.935 279.646)" fill="#cf131b"/>
    <path d="M75.073,17.326V17.01a4.468,4.468,0,0,0-4.32-4.32H61.1c-.1,0-.183-.033-.266-.033a1.85,1.85,0,0,0-.282.033,4.45,4.45,0,0,0-4.187,4.187c0,.1-.033.183-.033.266a1.453,1.453,0,0,0,.033.266L51.7,60.775c-1.1,8.889-3.8,12.029-9.9,12.744-3.639.432-8.856,0-11.946-3.157-2.841-2.891-2.559-6.629-2.11-10.933l.1-.847c0-1.578,6.015-43.166,6.015-43.166,0-.133.1-.7.1-.831a2.933,2.933,0,0,0,0-.382A4.529,4.529,0,0,0,29.8,10.115H20.442a4.662,4.662,0,0,0-.681,0c-2.26.166-3.589,1.828-4.137,4.287a4.359,4.359,0,0,0-.1.6C13.248,29.854,9.094,54.777,9.16,65.161c.565,16.948,11.7,25.571,31.054,25.588h.814c17.6.017,27.083-6.879,29.259-27.98.7-6.812,2.775-24.258,4.785-45.459Z" transform="translate(609.341 281.464)" fill="#fff"/>
    <path d="M99.87,14.393s.017.15.017.233V14.16s-.017.15-.017.233Z" transform="translate(669.347 284.147)" fill="#182072"/>
    <path d="M99.87,54.753s.017.15.017.233V54.52S99.87,54.67,99.87,54.753Z" transform="translate(669.347 310.847)" fill="#005e77"/>
    <path d="M149.922,76.616a3.465,3.465,0,0,0,.066-.582,3.28,3.28,0,0,0-.066-.582,4.444,4.444,0,0,0-3.871-3.838c-.183-.017-.366-.05-.565-.05s-.382.033-.565.05H121.244a2.553,2.553,0,0,1-2.542-2.542V58.123a2.553,2.553,0,0,1,2.542-2.542H143.06c.116,0,.233.033.366.033s.233-.033.366-.033a4.47,4.47,0,0,0,4.1-4.22c0-.083.017-.15.017-.233s-.017-.15-.017-.233V44.88s.017-.15.017-.233-.017-.15-.017-.233a4.473,4.473,0,0,0-4.2-4.237c-.083,0-.166-.033-.266-.033a1.454,1.454,0,0,0-.266.033H121.244a2.553,2.553,0,0,1-2.542-2.542v-7.51a2.553,2.553,0,0,1,2.542-2.542H145.22s.166.017.249.017.166-.017.249-.017a4.454,4.454,0,0,0,4.2-3.988,4.744,4.744,0,0,0,.05-.482,4.744,4.744,0,0,0-.05-.482V16.551a4.744,4.744,0,0,0,.05-.482,4.744,4.744,0,0,0-.05-.482,4.453,4.453,0,0,0-4.287-3.988H104.163a4.464,4.464,0,0,0-4.3,4.237V83.361a4.465,4.465,0,0,0,3.954,4.2,2.686,2.686,0,0,0,1.03,0h40.093a2.686,2.686,0,0,0,1.03,0,4.446,4.446,0,0,0,3.9-3.855,3.468,3.468,0,0,0,.066-.582,3.283,3.283,0,0,0-.066-.582V76.616Z" transform="translate(669.342 282.455)" fill="#fff"/>
    <path d="M118.754,11.59h-16.9a4.424,4.424,0,0,0-4.22,4.1l-6.7,27.947a2.529,2.529,0,0,1-2.492,2.01h0a2.511,2.511,0,0,1-2.476-2.01L79.227,15.461l-.15-.681a4.475,4.475,0,0,0-4.054-3.19H58.474a4.467,4.467,0,0,0-4.054,4V84.315a4.468,4.468,0,0,0,4.087,4.121h8.075a4.483,4.483,0,0,0,4.121-4.37V57.6a2.5,2.5,0,0,1,2.276-2.526h.282A2.507,2.507,0,0,1,75.737,57.1L82.1,84.3l.15.7a4.135,4.135,0,0,0,3.8,3.041h5.118a4.036,4.036,0,0,0,3.755-2.891l.183-.831,6.131-27.548a2.541,2.541,0,0,1,5.018.565V84.249a4.459,4.459,0,0,0,4.087,4.154h8.524c2.01-.166,4.1-1.213,4.1-4.32V15.528a4.438,4.438,0,0,0-4.22-3.938Z" transform="translate(639.281 282.447)" fill="#fff"/>
    <path d="M66.009,45.387H51.255a2.716,2.716,0,0,1-2.725-2.725l1.429-11.548a2.716,2.716,0,0,1,2.725-2.725H65.993a2.716,2.716,0,0,1,2.725,2.725V42.663a2.716,2.716,0,0,1-2.725,2.725Z" transform="translate(635.385 293.561)" fill="#cf131b" fill-rule="evenodd"/>
    <path d="M133.94,14.508c0,.166.033.332.05.5v-1C133.973,14.176,133.94,14.342,133.94,14.508Z" transform="translate(691.886 284.049)" fill="#182072"/>
    <path d="M133.91,55.173s.017.15.017.233V54.94S133.91,55.09,133.91,55.173Z" transform="translate(691.865 311.124)" fill="#005e77"/>
    <path d="M186.822,32.212c-6.447-22.281-24.74-20.653-25.5-20.57H137.591c-.15,0-.3-.05-.449-.05a4.117,4.117,0,0,0-.449.05,4.472,4.472,0,0,0-3.988,3.938v1L132.64,83.6v.465a4.468,4.468,0,0,0,4.17,4.237c.1,0,.183.033.282.033a1.282,1.282,0,0,0,.249-.033c6.1.033,14.9.083,18.443.083,5.1,0,12.827,0,21.832-5.417,8.291-5.018,16-27.282,9.2-50.76ZM167.117,66.9c-2.11,3.639-6.945,4.37-10.517,4.37a26.039,26.039,0,0,1-2.858-.15,2.539,2.539,0,0,1-2.276-2.526V31.165a2.561,2.561,0,0,1,2.326-2.542c4.8-.4,8.607.6,11.348,2.941,2.775,2.376,4.353,6.048,4.7,10.933C170.323,49.043,170.589,60.907,167.117,66.9Z" transform="translate(691.027 282.446)" fill="#fff"/>
    <path d="M184.37,54.616l.116-.366C184.453,54.366,184.4,54.483,184.37,54.616Z" transform="translate(725.247 310.668)" fill="#182072"/>
    <path d="M195.143,55.46l-.133.515A4.665,4.665,0,0,0,195.143,55.46Z" transform="translate(732.286 311.469)" fill="#182072"/>
    <path d="M244.938,82.673l-.249-.831L224.75,15.332a4.575,4.575,0,0,0-.349-1.146A4.452,4.452,0,0,0,220.8,11.61a2.354,2.354,0,0,0-.964,0H207.155a2.354,2.354,0,0,0-.964,0,4.5,4.5,0,0,0-3.655,2.675l-.282.93-20.3,67.275-.116.366a5.144,5.144,0,0,0-.083.9,4.471,4.471,0,0,0,4.038,4.436c.15,0,.3.05.465.05a4.424,4.424,0,0,0,.465-.05h8.075c.15,0,.3.05.465.05a4.847,4.847,0,0,0,4.287-3.223l.133-.515,1.794-7.145a2.54,2.54,0,0,1,2.459-1.927h18.227a2.54,2.54,0,0,1,2.459,1.927l1.745,6.945.116.465a4.472,4.472,0,0,0,3.672,3.19,2.876,2.876,0,0,0,1.23,0h8.374a4.239,4.239,0,0,0,1.5,0,4.47,4.47,0,0,0,3.738-4.42,4.911,4.911,0,0,0-.083-.864Zm-26.2-24.807a2.543,2.543,0,0,1-2.01.98h-7.377a2.548,2.548,0,0,1-2.476-3.157l3.689-14.721a2.532,2.532,0,0,1,4.918,0l3.689,14.721a2.5,2.5,0,0,1-.465,2.177Z" transform="translate(723.513 282.428)" fill="#fff"/>
    <path d="M175.18,22.992c0,.116.033.233.033.366v-.7c0,.116-.033.233-.033.349Z" transform="translate(719.167 289.771)" fill="#818a90"/>
    <path d="M178.012,20.16c-.116,0-.216.033-.332.033h.665C178.228,20.193,178.129,20.16,178.012,20.16Z" transform="translate(720.821 288.118)" fill="#818a90"/>
    <path d="M193.32,24.789v-.332a4.458,4.458,0,0,0-4.137-4.287H177.951a4.456,4.456,0,0,0-4.121,4.1l-6.48,53.3v.714a4.486,4.486,0,0,0,4.237,4.1c.066,0,.133.017.216.017s.15-.017.216-.017h10.135s.133.017.216.017.15-.017.216-.017a4.457,4.457,0,0,0,4.253-4.32c0-.05,6.48-53.3,6.48-53.3Z" transform="translate(713.988 288.124)" fill="#fff"/>
  </g>
</svg>
