<svg xmlns="http://www.w3.org/2000/svg" width="175" height="41.597" viewBox="0 0 175 41.597">
  <g id="Group_2342" data-name="Group 2342" transform="translate(-873.892 -376)">
    <path id="Path_10599" data-name="Path 10599" d="M29.37,9.866a3.141,3.141,0,0,0-3.141,3.141V27.98a9.973,9.973,0,1,1-19.316-3.5L12.631,12.1a3.141,3.141,0,0,0-5.7-2.634L1.164,21.943c-.028.061-.054.123-.079.186A16.257,16.257,0,1,0,32.511,27.98V13.007A3.141,3.141,0,0,0,29.37,9.866" transform="translate(873.892 373.076)" fill="#014927"/>
    <path id="Path_10600" data-name="Path 10600" d="M262.644,25.715c-.011-.036-.013-.072-.025-.107-.05-.148-.117-.284-.171-.428-.11-.292-.221-.583-.347-.867-.107-.243-.226-.477-.344-.713s-.222-.441-.343-.656c-.154-.275-.32-.54-.488-.8-.106-.165-.211-.33-.323-.491-.194-.28-.4-.549-.609-.814-.11-.138-.219-.276-.333-.411-.219-.257-.446-.505-.68-.748-.131-.136-.262-.272-.4-.4-.223-.215-.451-.42-.685-.622-.173-.15-.348-.3-.527-.439-.2-.161-.412-.316-.624-.467-.229-.165-.461-.323-.7-.476-.175-.111-.351-.218-.53-.322-.284-.167-.572-.327-.866-.477-.149-.075-.3-.146-.451-.217-.325-.152-.654-.3-.99-.428-.141-.055-.285-.106-.428-.157-.341-.122-.685-.235-1.037-.335-.164-.046-.33-.086-.5-.128-.327-.081-.655-.157-.99-.217-.217-.04-.436-.069-.656-.1-.286-.04-.572-.078-.862-.1s-.565-.034-.849-.043c-.174-.006-.344-.027-.519-.027-.071,0-.14.01-.21.011-.3,0-.606.025-.911.046-.239.017-.478.029-.714.056-.269.031-.538.079-.808.124s-.542.087-.809.146c-.231.051-.461.116-.691.178-.3.078-.59.157-.878.252-.067.022-.135.035-.2.058-.166.057-.321.131-.484.193-.265.1-.529.2-.787.315s-.525.247-.782.377c-.2.1-.4.2-.588.307-.3.165-.581.343-.863.525-.144.093-.289.185-.43.283-.3.207-.588.426-.87.651-.119.1-.239.19-.355.288-.277.234-.541.477-.8.727-.119.115-.236.23-.352.348-.232.238-.454.484-.669.736-.134.156-.266.312-.394.473-.177.222-.344.449-.509.68-.15.21-.3.422-.436.64-.125.194-.244.392-.361.592-.154.264-.3.53-.442.8-.087.171-.169.344-.249.518-.142.3-.275.609-.4.921-.065.167-.125.335-.185.5-.112.317-.218.635-.311.961-.054.191-.1.385-.149.578-.073.3-.143.6-.2.908-.046.246-.079.493-.113.742s-.071.517-.094.779c-.027.31-.038.622-.048.934,0,.154-.023.3-.023.46,0,.034.009.065.01.1s-.01.065-.01.1.006.084.006.127c0,.162.017.325.025.488A16.183,16.183,0,0,0,254.07,45.818a3.141,3.141,0,0,0-2.565-5.735,9.868,9.868,0,0,1-13.376-5.83c-.02-.079-.028-.159-.056-.238a9.776,9.776,0,0,1-.4-1.714c-.027-.207-.049-.415-.064-.626a8.613,8.613,0,0,1,.073-2.211c.043-.306.082-.611.154-.909s.176-.6.277-.888a9.787,9.787,0,0,1,.346-.919c.129-.28.285-.542.438-.807s.312-.549.5-.806a9.8,9.8,0,0,1,.634-.768c.191-.218.377-.439.587-.64a9.847,9.847,0,0,1,.794-.655c.232-.18.461-.362.712-.521.27-.172.56-.315.848-.461a9.73,9.73,0,0,1,.916-.422c.288-.11.588-.193.888-.276a9.667,9.667,0,0,1,.993-.232,9.874,9.874,0,0,1,1.019-.1c.309-.019.618-.037.924-.027a9.7,9.7,0,0,1,1.009.1c.317.044.635.085.945.16.291.07.57.169.85.264a9.985,9.985,0,0,1,.956.36c.267.123.517.273.77.419a9.81,9.81,0,0,1,.843.517c.259.185.5.4.734.606s.462.4.673.617c.227.239.426.5.628.762.188.243.379.483.545.745s.3.54.444.817a9.839,9.839,0,0,1,.435.947,9.732,9.732,0,0,1,.667,3.481V43.808a3.141,3.141,0,0,0,6.283,0V30.828a16.027,16.027,0,0,0-.846-5.114" transform="translate(785.402 370.37)" fill="#014927"/>
    <path id="Path_10601" data-name="Path 10601" d="M193.581,0a3.141,3.141,0,0,0-3.142,3.141V25.2a9.709,9.709,0,1,1-19.417.12,10.1,10.1,0,0,1,.172-1.768c.013-.069.03-.136.044-.2a10.132,10.132,0,0,1,.424-1.42c.051-.131.089-.267.144-.4a9.94,9.94,0,0,1,.69-1.322c.1-.172.224-.335.338-.5a9.223,9.223,0,0,1,7.537-4.02c.2,0,.388.025.583.038a10.033,10.033,0,0,1,3.754,1.354,3.112,3.112,0,0,0,4.588-1.8,3.131,3.131,0,0,0-1.364-3.876,15.342,15.342,0,0,0-6.082-1.9,13.8,13.8,0,0,0-8.945,1.735A15.746,15.746,0,0,0,169.32,14.1a16.026,16.026,0,0,0-1.117,1.283c-.033.043-.062.088-.1.131a16.111,16.111,0,0,0-2.741,5.422c-.05.169-.085.341-.128.512-.1.394-.187.792-.257,1.2-.052.293-.1.584-.131.879-.045.389-.069.784-.086,1.181-.006.166-.035.331-.035.5,0,.039,0,.077,0,.116s0,.077,0,.115c0,.075.016.145.021.219a15.988,15.988,0,0,0,31.972-.454V3.141A3.141,3.141,0,0,0,193.581,0" transform="translate(810.86 376)" fill="#014927"/>
    <path id="Path_10602" data-name="Path 10602" d="M221.8,1.737a3.449,3.449,0,1,0,3.449,3.449A3.449,3.449,0,0,0,221.8,1.737" transform="translate(790.341 375.335)" fill="#014927"/>
    <path id="Path_10603" data-name="Path 10603" d="M141.367,33.492a3.141,3.141,0,0,0-4.042,1.843,7.913,7.913,0,0,1-3.2,3.694c-4.879,2.961-10.788,1.865-13.746-2.548a9.657,9.657,0,0,1-1.448-7.332,9.877,9.877,0,0,1,12.539-7.506,6.918,6.918,0,0,0,.983.566c.573.268,1.782,1.235.451,2.113a.463.463,0,0,0-.188.229L122.3,32.008a3.141,3.141,0,0,0,3.655,5.11l13.468-9.636a4.625,4.625,0,0,0,2.255-3.669c.155-2.68-2.1-4.691-2.852-5.286a16.186,16.186,0,0,0-26.045,9.381,15.817,15.817,0,0,0,15.659,19.023,17.244,17.244,0,0,0,8.952-2.531,14.191,14.191,0,0,0,5.822-6.867,3.142,3.142,0,0,0-1.843-4.042" transform="translate(830.861 370.284)" fill="#014927"/>
    <path id="Path_10604" data-name="Path 10604" d="M78.585,14.9a10.055,10.055,0,0,0-6.967,2.818,10.083,10.083,0,0,0-17.075,7.29V44.059a3.141,3.141,0,1,0,6.282,0V25.005a3.826,3.826,0,0,1,7.652,0V44.059a3.141,3.141,0,1,0,6.282,0V25.005a3.826,3.826,0,1,1,7.652,0V44.059a3.141,3.141,0,0,0,6.282,0V25.005A10.12,10.12,0,0,0,78.585,14.9" transform="translate(853.021 370.3)" fill="#014927"/>
    <path id="Path_10605" data-name="Path 10605" d="M221.991,14.709a3.141,3.141,0,0,0-3.141,3.141v26a3.141,3.141,0,1,0,6.282,0v-26a3.141,3.141,0,0,0-3.141-3.141" transform="translate(790.151 370.372)" fill="#014927"/>
  </g>
</svg>
